<svg width="19" height="19" viewBox="0 0 19 19" fill="none" xmlns="http://www.w3.org/2000/svg">
<path d="M4.5 4.5L3.625 1H1M4.5 4.5H17.9167L16.0066 12.6178C15.7586 13.6717 14.8181 14.4167 13.7353 14.4167H8.92108C7.86233 14.4167 6.93632 13.7038 6.6654 12.6804L4.5 4.5Z" stroke="#BCECE0" stroke-width="1.75" stroke-linecap="round" stroke-linejoin="round"/>
<path d="M7.12467 18.7913C7.76901 18.7913 8.29134 18.269 8.29134 17.6247C8.29134 16.9803 7.76901 16.458 7.12467 16.458C6.48034 16.458 5.95801 16.9803 5.95801 17.6247C5.95801 18.269 6.48034 18.7913 7.12467 18.7913Z" fill="#BCECE0"/>
<path d="M15.2917 18.7913C15.936 18.7913 16.4583 18.269 16.4583 17.6247C16.4583 16.9803 15.936 16.458 15.2917 16.458C14.6473 16.458 14.125 16.9803 14.125 17.6247C14.125 18.269 14.6473 18.7913 15.2917 18.7913Z" fill="#BCECE0"/>
</svg>
